<svg width="102" height="51" viewBox="0 0 102 51" fill="none" xmlns="http://www.w3.org/2000/svg">
<path d="M28.272 20.528H33.136V33.808L30.864 34.064C30.0747 34.064 29.4453 33.8293 28.976 33.36C28.5067 32.8907 28.272 32.2613 28.272 31.472V20.528ZM30.864 34.064V30.096H40.912C41.0613 30.3093 41.1893 30.5867 41.296 30.928C41.4027 31.248 41.456 31.6107 41.456 32.016C41.456 32.6987 41.3067 33.2107 41.008 33.552C40.7093 33.8933 40.2933 34.064 39.76 34.064H30.864ZM33.136 26.608H28.272V14.544C28.4853 14.5013 28.8053 14.448 29.232 14.384C29.68 14.32 30.1067 14.288 30.512 14.288C31.4507 14.288 32.1227 14.448 32.528 14.768C32.9333 15.088 33.136 15.696 33.136 16.592V26.608ZM59.376 26.32C59.376 27.984 59.0347 29.4347 58.352 30.672C57.6907 31.888 56.752 32.8267 55.536 33.488C54.32 34.1493 52.8907 34.48 51.248 34.48C49.6267 34.48 48.1973 34.16 46.96 33.52C45.744 32.8587 44.7947 31.92 44.112 30.704C43.4507 29.4667 43.12 28.0053 43.12 26.32C43.12 24.6347 43.4613 23.1947 44.144 22C44.8267 20.784 45.776 19.8453 46.992 19.184C48.2293 18.5013 49.648 18.16 51.248 18.16C52.8693 18.16 54.288 18.5013 55.504 19.184C56.72 19.8453 57.6693 20.7947 58.352 22.032C59.0347 23.248 59.376 24.6773 59.376 26.32ZM51.248 21.904C50.2453 21.904 49.4453 22.288 48.848 23.056C48.272 23.824 47.984 24.912 47.984 26.32C47.984 27.7493 48.272 28.848 48.848 29.616C49.424 30.3627 50.224 30.736 51.248 30.736C52.272 30.736 53.072 30.352 53.648 29.584C54.224 28.816 54.512 27.728 54.512 26.32C54.512 24.9333 54.224 23.856 53.648 23.088C53.072 22.2987 52.272 21.904 51.248 21.904ZM70.644 21.936C69.492 21.936 68.5 22.32 67.668 23.088C66.8573 23.8347 66.452 24.9333 66.452 26.384C66.452 27.8133 66.8467 28.8907 67.636 29.616C68.4253 30.3413 69.4173 30.704 70.612 30.704C71.316 30.704 71.924 30.6187 72.436 30.448C72.9693 30.256 73.428 30.0533 73.812 29.84C74.1747 30.096 74.452 30.384 74.644 30.704C74.836 31.0027 74.932 31.376 74.932 31.824C74.932 32.6133 74.5053 33.2533 73.652 33.744C72.7987 34.2347 71.6147 34.48 70.1 34.48C68.4147 34.48 66.932 34.1813 65.652 33.584C64.372 32.9653 63.38 32.048 62.676 30.832C61.972 29.616 61.62 28.1333 61.62 26.384C61.62 24.528 62.004 23.0027 62.772 21.808C63.54 20.592 64.5533 19.6853 65.812 19.088C67.092 18.4693 68.4787 18.16 69.972 18.16C71.444 18.16 72.596 18.4267 73.428 18.96C74.2813 19.4933 74.708 20.1547 74.708 20.944C74.708 21.328 74.612 21.68 74.42 22C74.2493 22.2987 74.0467 22.5653 73.812 22.8C73.4067 22.5867 72.9373 22.3947 72.404 22.224C71.892 22.032 71.3053 21.936 70.644 21.936ZM84.2538 30.96C84.7444 30.96 85.2244 30.9173 85.6938 30.832C86.1844 30.7253 86.5364 30.608 86.7498 30.48V27.408L84.0618 27.664C83.3364 27.7067 82.7604 27.856 82.3338 28.112C81.9071 28.368 81.6938 28.752 81.6938 29.264C81.6938 29.776 81.8964 30.192 82.3018 30.512C82.7071 30.8107 83.3578 30.96 84.2538 30.96ZM84.0618 18.16C86.2804 18.16 88.0511 18.6293 89.3738 19.568C90.6964 20.4853 91.3578 21.9147 91.3578 23.856V31.12C91.3578 31.6533 91.2191 32.0907 90.9418 32.432C90.6644 32.752 90.3124 33.0293 89.8858 33.264C89.2458 33.648 88.4458 33.9467 87.4858 34.16C86.5471 34.3947 85.4698 34.512 84.2538 34.512C82.0778 34.512 80.3391 34.0853 79.0378 33.232C77.7578 32.3787 77.1178 31.1093 77.1178 29.424C77.1178 27.9733 77.5658 26.864 78.4618 26.096C79.3578 25.3067 80.6911 24.8267 82.4618 24.656L86.7178 24.208V23.824C86.7178 23.0987 86.4298 22.576 85.8538 22.256C85.2991 21.936 84.4991 21.776 83.4538 21.776C82.6431 21.776 81.8431 21.872 81.0538 22.064C80.2858 22.256 79.5924 22.48 78.9738 22.736C78.7178 22.5653 78.4938 22.3093 78.3018 21.968C78.1311 21.6053 78.0458 21.232 78.0458 20.848C78.0458 19.952 78.5364 19.3013 79.5178 18.896C80.1364 18.64 80.8511 18.4587 81.6618 18.352C82.4938 18.224 83.2938 18.16 84.0618 18.16ZM95.1723 25.552L99.9403 25.648V33.968C99.7269 34.032 99.4283 34.0853 99.0443 34.128C98.6603 34.192 98.2443 34.224 97.7963 34.224C96.9003 34.224 96.2389 34.064 95.8123 33.744C95.3856 33.424 95.1723 32.848 95.1723 32.016V25.552ZM99.9403 28.112L95.1723 28.016V13.168C95.3856 13.104 95.6843 13.04 96.0683 12.976C96.4523 12.912 96.8683 12.88 97.3163 12.88C98.2336 12.88 98.8949 13.04 99.3003 13.36C99.7269 13.68 99.9403 14.2667 99.9403 15.12V28.112Z" fill="#292929"/>
<path d="M17.5 14H3.5C2.57174 14 1.6815 14.3687 1.02513 15.0251C0.368749 15.6815 0 16.5717 0 17.5V31.5C0 32.4283 0.368749 33.3185 1.02513 33.9749C1.6815 34.6313 2.57174 35 3.5 35H17.5C18.4283 35 19.3185 34.6313 19.9749 33.9749C20.6313 33.3185 21 32.4283 21 31.5V17.5C21 16.5717 20.6313 15.6815 19.9749 15.0251C19.3185 14.3687 18.4283 14 17.5 14ZM19.25 31.5C19.25 31.9641 19.0656 32.4092 18.7374 32.7374C18.4092 33.0656 17.9641 33.25 17.5 33.25H3.5C3.03587 33.25 2.59075 33.0656 2.26256 32.7374C1.93437 32.4092 1.75 31.9641 1.75 31.5V17.5C1.75 17.0359 1.93437 16.5908 2.26256 16.2626C2.59075 15.9344 3.03587 15.75 3.5 15.75H17.5C17.9641 15.75 18.4092 15.9344 18.7374 16.2626C19.0656 16.5908 19.25 17.0359 19.25 17.5V31.5ZM11.8125 24.5C11.8125 24.7596 11.7355 25.0133 11.5913 25.2292C11.4471 25.445 11.2421 25.6133 11.0023 25.7126C10.7624 25.8119 10.4985 25.8379 10.2439 25.7873C9.98934 25.7366 9.75548 25.6116 9.57192 25.4281C9.38837 25.2445 9.26336 25.0107 9.21272 24.7561C9.16208 24.5015 9.18807 24.2376 9.28741 23.9977C9.38675 23.7579 9.55497 23.5529 9.77081 23.4087C9.98665 23.2645 10.2404 23.1875 10.5 23.1875C10.8481 23.1875 11.1819 23.3258 11.4281 23.5719C11.6742 23.8181 11.8125 24.1519 11.8125 24.5Z" fill="#229BFF"/>
</svg>
